<svg xmlns="http://www.w3.org/2000/svg" width="36in" height="24in" viewBox="0 0 3600 2400" font-family="Helvetica, Arial, sans-serif">
<rect x="0" y="0" width="3600" height="2400" fill="white"/>
<rect x="40" y="40" width="3520" height="2320" fill="none" stroke="black" stroke-width="4"/>
<rect x="520.0" y="460.0" width="1500.0" height="1250.0" fill="none" stroke="black" stroke-width="12"/>
<line x1="1020.0" y1="460.0" x2="1020.0" y2="1710.0" stroke="black" stroke-width="10"/>
<line x1="770.0" y1="460.0" x2="770.0" y2="1710.0" stroke="black" stroke-width="5"/>
<line x1="520.0" y1="772.5" x2="1020.0" y2="772.5" stroke="black" stroke-width="5"/>
<line x1="520.0" y1="1085.0" x2="1020.0" y2="1085.0" stroke="black" stroke-width="5"/>
<line x1="520.0" y1="1397.5" x2="1020.0" y2="1397.5" stroke="black" stroke-width="5"/>
<line x1="520.0" y1="1553.8" x2="770.0" y2="1553.8" stroke="black" stroke-width="5"/>
<text x="645.0" y="602.2" font-size="15" font-weight="bold" text-anchor="middle">101 LOBBY</text>
<text x="645.0" y="632.2" font-size="13" font-weight="normal" text-anchor="middle">500 SF</text>
<text x="895.0" y="602.2" font-size="15" font-weight="bold" text-anchor="middle">102 CONFERENCE</text>
<text x="895.0" y="632.2" font-size="13" font-weight="normal" text-anchor="middle">500 SF</text>
<text x="645.0" y="914.8" font-size="15" font-weight="bold" text-anchor="middle">103 OFFICE</text>
<text x="645.0" y="944.8" font-size="13" font-weight="normal" text-anchor="middle">500 SF</text>
<text x="895.0" y="914.8" font-size="15" font-weight="bold" text-anchor="middle">104 OFFICE</text>
<text x="895.0" y="944.8" font-size="13" font-weight="normal" text-anchor="middle">500 SF</text>
<text x="645.0" y="1227.2" font-size="15" font-weight="bold" text-anchor="middle">105 BREAK ROOM</text>
<text x="645.0" y="1257.2" font-size="13" font-weight="normal" text-anchor="middle">500 SF</text>
<text x="895.0" y="1227.2" font-size="15" font-weight="bold" text-anchor="middle">108 OFFICE</text>
<text x="895.0" y="1257.2" font-size="13" font-weight="normal" text-anchor="middle">500 SF</text>
<text x="645.0" y="1461.6" font-size="15" font-weight="bold" text-anchor="middle">106 RESTROOM M</text>
<text x="645.0" y="1491.6" font-size="13" font-weight="normal" text-anchor="middle">250 SF</text>
<text x="645.0" y="1617.9" font-size="15" font-weight="bold" text-anchor="middle">107 RESTROOM W</text>
<text x="645.0" y="1647.9" font-size="13" font-weight="normal" text-anchor="middle">250 SF</text>
<text x="895.0" y="1539.8" font-size="15" font-weight="bold" text-anchor="middle">109 IT / STORAGE</text>
<text x="895.0" y="1569.8" font-size="13" font-weight="normal" text-anchor="middle">500 SF</text>
<text x="1520.0" y="1071.0" font-size="15" font-weight="bold" text-anchor="middle">200 WAREHOUSE</text>
<text x="1520.0" y="1101.0" font-size="13" font-weight="normal" text-anchor="middle">8,000 SF</text>
<rect x="566.5" y="504.1" width="32" height="16" fill="none" stroke="black" stroke-width="2" class="troffer"/>
<rect x="691.5" y="504.1" width="32" height="16" fill="none" stroke="black" stroke-width="2" class="troffer"/>
<rect x="566.5" y="608.2" width="32" height="16" fill="none" stroke="black" stroke-width="2" class="troffer"/>
<rect x="691.5" y="608.2" width="32" height="16" fill="none" stroke="black" stroke-width="2" class="troffer"/>
<rect x="566.5" y="712.4" width="32" height="16" fill="none" stroke="black" stroke-width="2" class="troffer"/>
<rect x="691.5" y="712.4" width="32" height="16" fill="none" stroke="black" stroke-width="2" class="troffer"/>
<rect x="816.5" y="504.1" width="32" height="16" fill="none" stroke="black" stroke-width="2" class="troffer"/>
<rect x="941.5" y="504.1" width="32" height="16" fill="none" stroke="black" stroke-width="2" class="troffer"/>
<rect x="816.5" y="608.2" width="32" height="16" fill="none" stroke="black" stroke-width="2" class="troffer"/>
<rect x="941.5" y="608.2" width="32" height="16" fill="none" stroke="black" stroke-width="2" class="troffer"/>
<rect x="816.5" y="712.4" width="32" height="16" fill="none" stroke="black" stroke-width="2" class="troffer"/>
<rect x="941.5" y="712.4" width="32" height="16" fill="none" stroke="black" stroke-width="2" class="troffer"/>
<rect x="566.5" y="816.6" width="32" height="16" fill="none" stroke="black" stroke-width="2" class="troffer"/>
<rect x="691.5" y="816.6" width="32" height="16" fill="none" stroke="black" stroke-width="2" class="troffer"/>
<rect x="566.5" y="920.8" width="32" height="16" fill="none" stroke="black" stroke-width="2" class="troffer"/>
<rect x="691.5" y="920.8" width="32" height="16" fill="none" stroke="black" stroke-width="2" class="troffer"/>
<rect x="566.5" y="1024.9" width="32" height="16" fill="none" stroke="black" stroke-width="2" class="troffer"/>
<rect x="691.5" y="1024.9" width="32" height="16" fill="none" stroke="black" stroke-width="2" class="troffer"/>
<rect x="816.5" y="816.6" width="32" height="16" fill="none" stroke="black" stroke-width="2" class="troffer"/>
<rect x="941.5" y="816.6" width="32" height="16" fill="none" stroke="black" stroke-width="2" class="troffer"/>
<rect x="816.5" y="920.8" width="32" height="16" fill="none" stroke="black" stroke-width="2" class="troffer"/>
<rect x="941.5" y="920.8" width="32" height="16" fill="none" stroke="black" stroke-width="2" class="troffer"/>
<rect x="816.5" y="1024.9" width="32" height="16" fill="none" stroke="black" stroke-width="2" class="troffer"/>
<rect x="941.5" y="1024.9" width="32" height="16" fill="none" stroke="black" stroke-width="2" class="troffer"/>
<rect x="566.5" y="1129.1" width="32" height="16" fill="none" stroke="black" stroke-width="2" class="troffer"/>
<rect x="691.5" y="1129.1" width="32" height="16" fill="none" stroke="black" stroke-width="2" class="troffer"/>
<rect x="566.5" y="1233.2" width="32" height="16" fill="none" stroke="black" stroke-width="2" class="troffer"/>
<rect x="691.5" y="1233.2" width="32" height="16" fill="none" stroke="black" stroke-width="2" class="troffer"/>
<rect x="566.5" y="1337.4" width="32" height="16" fill="none" stroke="black" stroke-width="2" class="troffer"/>
<rect x="691.5" y="1337.4" width="32" height="16" fill="none" stroke="black" stroke-width="2" class="troffer"/>
<rect x="816.5" y="1129.1" width="32" height="16" fill="none" stroke="black" stroke-width="2" class="troffer"/>
<rect x="941.5" y="1129.1" width="32" height="16" fill="none" stroke="black" stroke-width="2" class="troffer"/>
<rect x="816.5" y="1233.2" width="32" height="16" fill="none" stroke="black" stroke-width="2" class="troffer"/>
<rect x="941.5" y="1233.2" width="32" height="16" fill="none" stroke="black" stroke-width="2" class="troffer"/>
<rect x="816.5" y="1337.4" width="32" height="16" fill="none" stroke="black" stroke-width="2" class="troffer"/>
<rect x="941.5" y="1337.4" width="32" height="16" fill="none" stroke="black" stroke-width="2" class="troffer"/>
<rect x="566.5" y="1467.6" width="32" height="16" fill="none" stroke="black" stroke-width="2" class="troffer"/>
<rect x="691.5" y="1467.6" width="32" height="16" fill="none" stroke="black" stroke-width="2" class="troffer"/>
<rect x="566.5" y="1623.9" width="32" height="16" fill="none" stroke="black" stroke-width="2" class="troffer"/>
<rect x="691.5" y="1623.9" width="32" height="16" fill="none" stroke="black" stroke-width="2" class="troffer"/>
<rect x="816.5" y="1441.6" width="32" height="16" fill="none" stroke="black" stroke-width="2" class="troffer"/>
<rect x="941.5" y="1441.6" width="32" height="16" fill="none" stroke="black" stroke-width="2" class="troffer"/>
<rect x="816.5" y="1545.8" width="32" height="16" fill="none" stroke="black" stroke-width="2" class="troffer"/>
<rect x="941.5" y="1545.8" width="32" height="16" fill="none" stroke="black" stroke-width="2" class="troffer"/>
<rect x="816.5" y="1649.9" width="32" height="16" fill="none" stroke="black" stroke-width="2" class="troffer"/>
<rect x="941.5" y="1649.9" width="32" height="16" fill="none" stroke="black" stroke-width="2" class="troffer"/>
<circle cx="1103.3" cy="616.2" r="10" fill="none" stroke="black" stroke-width="2" class="highbay"/>
<circle cx="1103.3" cy="928.8" r="10" fill="none" stroke="black" stroke-width="2" class="highbay"/>
<circle cx="1103.3" cy="1241.2" r="10" fill="none" stroke="black" stroke-width="2" class="highbay"/>
<circle cx="1103.3" cy="1553.8" r="10" fill="none" stroke="black" stroke-width="2" class="highbay"/>
<circle cx="1270.0" cy="616.2" r="10" fill="none" stroke="black" stroke-width="2" class="highbay"/>
<circle cx="1270.0" cy="928.8" r="10" fill="none" stroke="black" stroke-width="2" class="highbay"/>
<circle cx="1270.0" cy="1241.2" r="10" fill="none" stroke="black" stroke-width="2" class="highbay"/>
<circle cx="1270.0" cy="1553.8" r="10" fill="none" stroke="black" stroke-width="2" class="highbay"/>
<circle cx="1436.7" cy="616.2" r="10" fill="none" stroke="black" stroke-width="2" class="highbay"/>
<circle cx="1436.7" cy="928.8" r="10" fill="none" stroke="black" stroke-width="2" class="highbay"/>
<circle cx="1436.7" cy="1241.2" r="10" fill="none" stroke="black" stroke-width="2" class="highbay"/>
<circle cx="1436.7" cy="1553.8" r="10" fill="none" stroke="black" stroke-width="2" class="highbay"/>
<circle cx="1603.3" cy="616.2" r="10" fill="none" stroke="black" stroke-width="2" class="highbay"/>
<circle cx="1603.3" cy="928.8" r="10" fill="none" stroke="black" stroke-width="2" class="highbay"/>
<circle cx="1603.3" cy="1241.2" r="10" fill="none" stroke="black" stroke-width="2" class="highbay"/>
<circle cx="1603.3" cy="1553.8" r="10" fill="none" stroke="black" stroke-width="2" class="highbay"/>
<circle cx="1770.0" cy="616.2" r="10" fill="none" stroke="black" stroke-width="2" class="highbay"/>
<circle cx="1770.0" cy="928.8" r="10" fill="none" stroke="black" stroke-width="2" class="highbay"/>
<circle cx="1770.0" cy="1241.2" r="10" fill="none" stroke="black" stroke-width="2" class="highbay"/>
<circle cx="1770.0" cy="1553.8" r="10" fill="none" stroke="black" stroke-width="2" class="highbay"/>
<circle cx="1936.7" cy="616.2" r="10" fill="none" stroke="black" stroke-width="2" class="highbay"/>
<circle cx="1936.7" cy="928.8" r="10" fill="none" stroke="black" stroke-width="2" class="highbay"/>
<circle cx="1936.7" cy="1241.2" r="10" fill="none" stroke="black" stroke-width="2" class="highbay"/>
<circle cx="1936.7" cy="1553.8" r="10" fill="none" stroke="black" stroke-width="2" class="highbay"/>
<polygon points="544.2,762.5 558.2,762.5 551.2,750.5" fill="black" class="receptacle"/>
<polygon points="606.8,762.5 620.8,762.5 613.8,750.5" fill="black" class="receptacle"/>
<polygon points="669.2,762.5 683.2,762.5 676.2,750.5" fill="black" class="receptacle"/>
<polygon points="731.8,762.5 745.8,762.5 738.8,750.5" fill="black" class="receptacle"/>
<polygon points="794.2,762.5 808.2,762.5 801.2,750.5" fill="black" class="receptacle"/>
<polygon points="856.8,762.5 870.8,762.5 863.8,750.5" fill="black" class="receptacle"/>
<polygon points="919.2,762.5 933.2,762.5 926.2,750.5" fill="black" class="receptacle"/>
<polygon points="981.8,762.5 995.8,762.5 988.8,750.5" fill="black" class="receptacle"/>
<polygon points="544.2,1075.0 558.2,1075.0 551.2,1063.0" fill="black" class="receptacle"/>
<polygon points="606.8,1075.0 620.8,1075.0 613.8,1063.0" fill="black" class="receptacle"/>
<polygon points="669.2,1075.0 683.2,1075.0 676.2,1063.0" fill="black" class="receptacle"/>
<polygon points="731.8,1075.0 745.8,1075.0 738.8,1063.0" fill="black" class="receptacle"/>
<polygon points="794.2,1075.0 808.2,1075.0 801.2,1063.0" fill="black" class="receptacle"/>
<polygon points="856.8,1075.0 870.8,1075.0 863.8,1063.0" fill="black" class="receptacle"/>
<polygon points="919.2,1075.0 933.2,1075.0 926.2,1063.0" fill="black" class="receptacle"/>
<polygon points="981.8,1075.0 995.8,1075.0 988.8,1063.0" fill="black" class="receptacle"/>
<polygon points="544.2,1387.5 558.2,1387.5 551.2,1375.5" fill="black" class="receptacle"/>
<polygon points="606.8,1387.5 620.8,1387.5 613.8,1375.5" fill="black" class="receptacle"/>
<polygon points="669.2,1387.5 683.2,1387.5 676.2,1375.5" fill="black" class="receptacle"/>
<polygon points="731.8,1387.5 745.8,1387.5 738.8,1375.5" fill="black" class="receptacle"/>
<polygon points="794.2,1387.5 808.2,1387.5 801.2,1375.5" fill="black" class="receptacle"/>
<polygon points="856.8,1387.5 870.8,1387.5 863.8,1375.5" fill="black" class="receptacle"/>
<polygon points="919.2,1387.5 933.2,1387.5 926.2,1375.5" fill="black" class="receptacle"/>
<polygon points="981.8,1387.5 995.8,1387.5 988.8,1375.5" fill="black" class="receptacle"/>
<polygon points="544.2,1543.8 558.2,1543.8 551.2,1531.8" fill="black" class="receptacle"/>
<polygon points="606.8,1543.8 620.8,1543.8 613.8,1531.8" fill="black" class="receptacle"/>
<polygon points="669.2,1543.8 683.2,1543.8 676.2,1531.8" fill="black" class="receptacle"/>
<polygon points="731.8,1543.8 745.8,1543.8 738.8,1531.8" fill="black" class="receptacle"/>
<polygon points="544.2,1700.0 558.2,1700.0 551.2,1688.0" fill="black" class="receptacle"/>
<polygon points="606.8,1700.0 620.8,1700.0 613.8,1688.0" fill="black" class="receptacle"/>
<polygon points="669.2,1700.0 683.2,1700.0 676.2,1688.0" fill="black" class="receptacle"/>
<polygon points="731.8,1700.0 745.8,1700.0 738.8,1688.0" fill="black" class="receptacle"/>
<polygon points="794.2,1700.0 808.2,1700.0 801.2,1688.0" fill="black" class="receptacle"/>
<polygon points="856.8,1700.0 870.8,1700.0 863.8,1688.0" fill="black" class="receptacle"/>
<polygon points="919.2,1700.0 933.2,1700.0 926.2,1688.0" fill="black" class="receptacle"/>
<polygon points="981.8,1700.0 995.8,1700.0 988.8,1688.0" fill="black" class="receptacle"/>
<polygon points="1054.7,1700.0 1068.7,1700.0 1061.7,1688.0" fill="black" class="receptacle"/>
<polygon points="1138.0,1700.0 1152.0,1700.0 1145.0,1688.0" fill="black" class="receptacle"/>
<polygon points="1221.3,1700.0 1235.3,1700.0 1228.3,1688.0" fill="black" class="receptacle"/>
<polygon points="1304.7,1700.0 1318.7,1700.0 1311.7,1688.0" fill="black" class="receptacle"/>
<polygon points="1388.0,1700.0 1402.0,1700.0 1395.0,1688.0" fill="black" class="receptacle"/>
<polygon points="1471.3,1700.0 1485.3,1700.0 1478.3,1688.0" fill="black" class="receptacle"/>
<polygon points="1554.7,1700.0 1568.7,1700.0 1561.7,1688.0" fill="black" class="receptacle"/>
<polygon points="1638.0,1700.0 1652.0,1700.0 1645.0,1688.0" fill="black" class="receptacle"/>
<polygon points="1721.3,1700.0 1735.3,1700.0 1728.3,1688.0" fill="black" class="receptacle"/>
<polygon points="1804.7,1700.0 1818.7,1700.0 1811.7,1688.0" fill="black" class="receptacle"/>
<polygon points="1888.0,1700.0 1902.0,1700.0 1895.0,1688.0" fill="black" class="receptacle"/>
<polygon points="1971.3,1700.0 1985.3,1700.0 1978.3,1688.0" fill="black" class="receptacle"/>
<text x="1270.0" y="210.0" font-size="14" font-weight="normal" text-anchor="middle">ELECTRICAL ROOM 109: MDP, T-1, LP-1, HP-1; SERVICE 400A 480Y/277V FROM PAD-MOUNT XFMR (UTILITY)</text>
<text x="2140.0" y="288.0" font-size="24" font-weight="bold" text-anchor="start">ONE-LINE (TABULAR) / GEAR SCHEDULE</text>
<rect x="2140" y="300" width="710" height="170" fill="none" stroke="black" stroke-width="2"/>
<line x1="2140.0" y1="334.0" x2="2850.0" y2="334.0" stroke="black" stroke-width="1"/>
<line x1="2140.0" y1="368.0" x2="2850.0" y2="368.0" stroke="black" stroke-width="1"/>
<line x1="2140.0" y1="402.0" x2="2850.0" y2="402.0" stroke="black" stroke-width="1"/>
<line x1="2140.0" y1="436.0" x2="2850.0" y2="436.0" stroke="black" stroke-width="1"/>
<line x1="2230.0" y1="300.0" x2="2230.0" y2="470.0" stroke="black" stroke-width="1"/>
<text x="2148.0" y="324.0" font-size="15" font-weight="bold" text-anchor="start">TAG</text>
<text x="2238.0" y="324.0" font-size="15" font-weight="bold" text-anchor="start">DESCRIPTION</text>
<text x="2148.0" y="358.0" font-size="15" font-weight="normal" text-anchor="start">MDP</text>
<text x="2238.0" y="358.0" font-size="15" font-weight="normal" text-anchor="start">400A MAIN DISTRIBUTION PANEL 480Y/277V</text>
<text x="2148.0" y="392.0" font-size="15" font-weight="normal" text-anchor="start">T-1</text>
<text x="2238.0" y="392.0" font-size="15" font-weight="normal" text-anchor="start">45 KVA TRANSFORMER 480-208Y/120V</text>
<text x="2148.0" y="426.0" font-size="15" font-weight="normal" text-anchor="start">LP-1</text>
<text x="2238.0" y="426.0" font-size="15" font-weight="normal" text-anchor="start">208Y/120V PANELBOARD, 42 CKT</text>
<text x="2148.0" y="460.0" font-size="15" font-weight="normal" text-anchor="start">HP-1</text>
<text x="2238.0" y="460.0" font-size="15" font-weight="normal" text-anchor="start">480Y/277V PANELBOARD, 30 CKT</text>
<text x="2140.0" y="508.0" font-size="24" font-weight="bold" text-anchor="start">LIGHTING FIXTURE SCHEDULE</text>
<rect x="2140" y="520" width="660" height="170" fill="none" stroke="black" stroke-width="2"/>
<line x1="2140.0" y1="554.0" x2="2800.0" y2="554.0" stroke="black" stroke-width="1"/>
<line x1="2140.0" y1="588.0" x2="2800.0" y2="588.0" stroke="black" stroke-width="1"/>
<line x1="2140.0" y1="622.0" x2="2800.0" y2="622.0" stroke="black" stroke-width="1"/>
<line x1="2140.0" y1="656.0" x2="2800.0" y2="656.0" stroke="black" stroke-width="1"/>
<line x1="2220.0" y1="520.0" x2="2220.0" y2="690.0" stroke="black" stroke-width="1"/>
<line x1="2720.0" y1="520.0" x2="2720.0" y2="690.0" stroke="black" stroke-width="1"/>
<text x="2148.0" y="544.0" font-size="15" font-weight="bold" text-anchor="start">TYPE</text>
<text x="2228.0" y="544.0" font-size="15" font-weight="bold" text-anchor="start">DESCRIPTION</text>
<text x="2728.0" y="544.0" font-size="15" font-weight="bold" text-anchor="start">QTY</text>
<text x="2148.0" y="578.0" font-size="15" font-weight="normal" text-anchor="start">A</text>
<text x="2228.0" y="578.0" font-size="15" font-weight="normal" text-anchor="start">2x4 LED TROFFER, 4000 LM</text>
<text x="2728.0" y="578.0" font-size="15" font-weight="normal" text-anchor="start">40</text>
<text x="2148.0" y="612.0" font-size="15" font-weight="normal" text-anchor="start">B</text>
<text x="2228.0" y="612.0" font-size="15" font-weight="normal" text-anchor="start">LED HIGH BAY, 20000 LM</text>
<text x="2728.0" y="612.0" font-size="15" font-weight="normal" text-anchor="start">24</text>
<text x="2148.0" y="646.0" font-size="15" font-weight="normal" text-anchor="start">C</text>
<text x="2228.0" y="646.0" font-size="15" font-weight="normal" text-anchor="start">LED WALL PACK, EXTERIOR</text>
<text x="2728.0" y="646.0" font-size="15" font-weight="normal" text-anchor="start">8</text>
<text x="2148.0" y="680.0" font-size="15" font-weight="normal" text-anchor="start">X</text>
<text x="2228.0" y="680.0" font-size="15" font-weight="normal" text-anchor="start">LED EXIT SIGN W/ BATTERY</text>
<text x="2728.0" y="680.0" font-size="15" font-weight="normal" text-anchor="start">6</text>
<text x="2140.0" y="748.0" font-size="24" font-weight="bold" text-anchor="start">PANEL LP-1 (208Y/120V, 42 CKT) — SUMMARY</text>
<rect x="2140" y="760" width="600" height="256" fill="none" stroke="black" stroke-width="2"/>
<line x1="2140.0" y1="792.0" x2="2740.0" y2="792.0" stroke="black" stroke-width="1"/>
<line x1="2140.0" y1="824.0" x2="2740.0" y2="824.0" stroke="black" stroke-width="1"/>
<line x1="2140.0" y1="856.0" x2="2740.0" y2="856.0" stroke="black" stroke-width="1"/>
<line x1="2140.0" y1="888.0" x2="2740.0" y2="888.0" stroke="black" stroke-width="1"/>
<line x1="2140.0" y1="920.0" x2="2740.0" y2="920.0" stroke="black" stroke-width="1"/>
<line x1="2140.0" y1="952.0" x2="2740.0" y2="952.0" stroke="black" stroke-width="1"/>
<line x1="2140.0" y1="984.0" x2="2740.0" y2="984.0" stroke="black" stroke-width="1"/>
<line x1="2230.0" y1="760.0" x2="2230.0" y2="1016.0" stroke="black" stroke-width="1"/>
<line x1="2630.0" y1="760.0" x2="2630.0" y2="1016.0" stroke="black" stroke-width="1"/>
<text x="2148.0" y="782.0" font-size="14" font-weight="bold" text-anchor="start">CKT</text>
<text x="2238.0" y="782.0" font-size="14" font-weight="bold" text-anchor="start">LOAD</text>
<text x="2638.0" y="782.0" font-size="14" font-weight="bold" text-anchor="start">BKR</text>
<text x="2148.0" y="814.0" font-size="14" font-weight="normal" text-anchor="start">1-9</text>
<text x="2238.0" y="814.0" font-size="14" font-weight="normal" text-anchor="start">OFFICE RECEPTACLES (28)</text>
<text x="2638.0" y="814.0" font-size="14" font-weight="normal" text-anchor="start">20A/1P</text>
<text x="2148.0" y="846.0" font-size="14" font-weight="normal" text-anchor="start">11-15</text>
<text x="2238.0" y="846.0" font-size="14" font-weight="normal" text-anchor="start">WAREHOUSE RECEPTACLES (12)</text>
<text x="2638.0" y="846.0" font-size="14" font-weight="normal" text-anchor="start">20A/1P</text>
<text x="2148.0" y="878.0" font-size="14" font-weight="normal" text-anchor="start">17-19</text>
<text x="2238.0" y="878.0" font-size="14" font-weight="normal" text-anchor="start">RESTROOM/BREAK RECEPTACLES (8)</text>
<text x="2638.0" y="878.0" font-size="14" font-weight="normal" text-anchor="start">20A/1P</text>
<text x="2148.0" y="910.0" font-size="14" font-weight="normal" text-anchor="start">21</text>
<text x="2238.0" y="910.0" font-size="14" font-weight="normal" text-anchor="start">WH-1</text>
<text x="2638.0" y="910.0" font-size="14" font-weight="normal" text-anchor="start">30A/2P</text>
<text x="2148.0" y="942.0" font-size="14" font-weight="normal" text-anchor="start">23-25</text>
<text x="2238.0" y="942.0" font-size="14" font-weight="normal" text-anchor="start">EF-1, EF-2, UH-1, UH-2</text>
<text x="2638.0" y="942.0" font-size="14" font-weight="normal" text-anchor="start">20A/1P</text>
<text x="2148.0" y="974.0" font-size="14" font-weight="normal" text-anchor="start">27-29</text>
<text x="2238.0" y="974.0" font-size="14" font-weight="normal" text-anchor="start">FACP, IT RACK</text>
<text x="2638.0" y="974.0" font-size="14" font-weight="normal" text-anchor="start">20A/1P</text>
<text x="2148.0" y="1006.0" font-size="14" font-weight="normal" text-anchor="start">SPARE</text>
<text x="2238.0" y="1006.0" font-size="14" font-weight="normal" text-anchor="start">12 SPARES</text>
<text x="2638.0" y="1006.0" font-size="14" font-weight="normal" text-anchor="start">-</text>
<text x="2140.0" y="1048.0" font-size="24" font-weight="bold" text-anchor="start">PANEL HP-1 (480Y/277V, 30 CKT) — SUMMARY</text>
<rect x="2140" y="1060" width="600" height="224" fill="none" stroke="black" stroke-width="2"/>
<line x1="2140.0" y1="1092.0" x2="2740.0" y2="1092.0" stroke="black" stroke-width="1"/>
<line x1="2140.0" y1="1124.0" x2="2740.0" y2="1124.0" stroke="black" stroke-width="1"/>
<line x1="2140.0" y1="1156.0" x2="2740.0" y2="1156.0" stroke="black" stroke-width="1"/>
<line x1="2140.0" y1="1188.0" x2="2740.0" y2="1188.0" stroke="black" stroke-width="1"/>
<line x1="2140.0" y1="1220.0" x2="2740.0" y2="1220.0" stroke="black" stroke-width="1"/>
<line x1="2140.0" y1="1252.0" x2="2740.0" y2="1252.0" stroke="black" stroke-width="1"/>
<line x1="2230.0" y1="1060.0" x2="2230.0" y2="1284.0" stroke="black" stroke-width="1"/>
<line x1="2630.0" y1="1060.0" x2="2630.0" y2="1284.0" stroke="black" stroke-width="1"/>
<text x="2148.0" y="1082.0" font-size="14" font-weight="bold" text-anchor="start">CKT</text>
<text x="2238.0" y="1082.0" font-size="14" font-weight="bold" text-anchor="start">LOAD</text>
<text x="2638.0" y="1082.0" font-size="14" font-weight="bold" text-anchor="start">BKR</text>
<text x="2148.0" y="1114.0" font-size="14" font-weight="normal" text-anchor="start">1-3</text>
<text x="2238.0" y="1114.0" font-size="14" font-weight="normal" text-anchor="start">RTU-1 (35 FLA)</text>
<text x="2638.0" y="1114.0" font-size="14" font-weight="normal" text-anchor="start">50A/3P</text>
<text x="2148.0" y="1146.0" font-size="14" font-weight="normal" text-anchor="start">5-7</text>
<text x="2238.0" y="1146.0" font-size="14" font-weight="normal" text-anchor="start">RTU-2 (35 FLA)</text>
<text x="2638.0" y="1146.0" font-size="14" font-weight="normal" text-anchor="start">50A/3P</text>
<text x="2148.0" y="1178.0" font-size="14" font-weight="normal" text-anchor="start">9-11</text>
<text x="2238.0" y="1178.0" font-size="14" font-weight="normal" text-anchor="start">OFFICE LIGHTING (40 x A)</text>
<text x="2638.0" y="1178.0" font-size="14" font-weight="normal" text-anchor="start">20A/1P</text>
<text x="2148.0" y="1210.0" font-size="14" font-weight="normal" text-anchor="start">13-15</text>
<text x="2238.0" y="1210.0" font-size="14" font-weight="normal" text-anchor="start">WAREHOUSE LIGHTING (24 x B)</text>
<text x="2638.0" y="1210.0" font-size="14" font-weight="normal" text-anchor="start">20A/1P</text>
<text x="2148.0" y="1242.0" font-size="14" font-weight="normal" text-anchor="start">17</text>
<text x="2238.0" y="1242.0" font-size="14" font-weight="normal" text-anchor="start">EXTERIOR LIGHTING (8 x C)</text>
<text x="2638.0" y="1242.0" font-size="14" font-weight="normal" text-anchor="start">20A/1P</text>
<text x="2148.0" y="1274.0" font-size="14" font-weight="normal" text-anchor="start">19</text>
<text x="2238.0" y="1274.0" font-size="14" font-weight="normal" text-anchor="start">T-1 45 KVA</text>
<text x="2638.0" y="1274.0" font-size="14" font-weight="normal" text-anchor="start">70A/3P</text>
<text x="2140.0" y="1328.0" font-size="24" font-weight="bold" text-anchor="start">FIRE ALARM DEVICES</text>
<rect x="2140" y="1340" width="400" height="160" fill="none" stroke="black" stroke-width="2"/>
<line x1="2140.0" y1="1372.0" x2="2540.0" y2="1372.0" stroke="black" stroke-width="1"/>
<line x1="2140.0" y1="1404.0" x2="2540.0" y2="1404.0" stroke="black" stroke-width="1"/>
<line x1="2140.0" y1="1436.0" x2="2540.0" y2="1436.0" stroke="black" stroke-width="1"/>
<line x1="2140.0" y1="1468.0" x2="2540.0" y2="1468.0" stroke="black" stroke-width="1"/>
<line x1="2440.0" y1="1340.0" x2="2440.0" y2="1500.0" stroke="black" stroke-width="1"/>
<text x="2148.0" y="1362.0" font-size="14" font-weight="bold" text-anchor="start">DEVICE</text>
<text x="2448.0" y="1362.0" font-size="14" font-weight="bold" text-anchor="start">QTY</text>
<text x="2148.0" y="1394.0" font-size="14" font-weight="normal" text-anchor="start">FACP</text>
<text x="2448.0" y="1394.0" font-size="14" font-weight="normal" text-anchor="start">1</text>
<text x="2148.0" y="1426.0" font-size="14" font-weight="normal" text-anchor="start">PULL STATION</text>
<text x="2448.0" y="1426.0" font-size="14" font-weight="normal" text-anchor="start">4</text>
<text x="2148.0" y="1458.0" font-size="14" font-weight="normal" text-anchor="start">HORN/STROBE</text>
<text x="2448.0" y="1458.0" font-size="14" font-weight="normal" text-anchor="start">10</text>
<text x="2148.0" y="1490.0" font-size="14" font-weight="normal" text-anchor="start">SMOKE DETECTOR</text>
<text x="2448.0" y="1490.0" font-size="14" font-weight="normal" text-anchor="start">6</text>
<text x="2140.0" y="1560.0" font-size="24" font-weight="bold" text-anchor="start">ELECTRICAL NOTES</text>
<text x="2140.0" y="1600.0" font-size="15" font-weight="normal" text-anchor="start">1. SERVICE: 400A, 480Y/277V, 3PH, 4W; UTILITY PAD-MOUNT TRANSFORMER AND PRIMARY BY ONCOR (NIC).</text>
<text x="2140.0" y="1628.0" font-size="15" font-weight="normal" text-anchor="start">2. RECEPTACLES: 48 DUPLEX 20A; DATA OUTLETS: 24 (RACEWAY AND BOXES ONLY; CABLING BY OWNER).</text>
<text x="2140.0" y="1656.0" font-size="15" font-weight="normal" text-anchor="start">3. BRANCH CIRCUITS 3/4" EMT WITH THHN; FEEDERS PER ONE-LINE; APPROX. 3,400 LF CONDUIT.</text>
<text x="2140.0" y="1684.0" font-size="15" font-weight="normal" text-anchor="start">4. LIGHTING CONTROLS: OCCUPANCY SENSORS IN ALL OFFICES; PHOTOCELL/TIMECLOCK FOR EXTERIOR.</text>
<text x="2140.0" y="1712.0" font-size="15" font-weight="normal" text-anchor="start">5. FIRE ALARM: ADDRESSABLE, MONITORED; SPRINKLER FLOW/TAMPER SUPERVISION.</text>
<g id="north" stroke="black" fill="none" stroke-width="2">
<circle cx="3300" cy="300" r="60"/>
<path d="M3300,250 L3320,330 L3300,310 L3280,330 Z" fill="black"/>
<text x="3285" y="400" font-size="26" stroke="none" fill="black">N</text>
</g>
<g id="titleblock" font-size="22">
<rect x="2960" y="1980" width="600" height="380" fill="none" stroke="black" stroke-width="3"/>
<line x1="2960" y1="2080" x2="3560" y2="2080" stroke="black" stroke-width="2"/>
<line x1="2960" y1="2180" x2="3560" y2="2180" stroke="black" stroke-width="2"/>
<line x1="2960" y1="2270" x2="3560" y2="2270" stroke="black" stroke-width="2"/>
<text x="2980" y="2015" font-size="24" font-weight="bold">BLACKLAND COMMERCIAL BUILDERS (SYNTHETIC DEMO)</text>
<text x="2980" y="2050" font-size="20">PRAIRIE CREEK OFFICE/WAREHOUSE — BUILDING 2</text>
<text x="2980" y="2110" font-size="18">SHEET TITLE</text>
<text x="2980" y="2150" font-size="28" font-weight="bold">POWER & LIGHTING PLAN, ONE-LINE, PANEL SCHEDULES</text>
<text x="2980" y="2210" font-size="20">SCALE: 1/8" = 1'-0"</text>
<text x="3300" y="2210" font-size="20">DATE: 09/12/2026</text>
<text x="2980" y="2250" font-size="20">REV: 2   ADDENDUM 1: 09/19/2026</text>
<text x="2980" y="2305" font-size="18">SHEET NUMBER</text>
<text x="3300" y="2330" font-size="44" font-weight="bold">E-101</text>
</g>
</svg>